<?xml version="1.0" standalone="no"?><!DOCTYPE svg PUBLIC "-//W3C//DTD SVG 1.1//EN" "http://www.w3.org/Graphics/SVG/1.1/DTD/svg11.dtd"><svg t="1774255427314" class="icon" viewBox="0 0 1024 1024" version="1.1" xmlns="http://www.w3.org/2000/svg" p-id="5172" xmlns:xlink="http://www.w3.org/1999/xlink" width="200" height="200"><path d="M734.254545 425.037576C694.147879 369.803636 621.614545 345.6 535.272727 370.036364c-129.008485-31.030303-232.727273 39.563636-232.727272 168.106666s104.184242 205.34303 232.727272 205.343031a298.589091 298.589091 0 0 0 55.854546-5.12C689.18303 712.921212 760.242424 638.758788 760.242424 529.532121a210.307879 210.307879 0 0 0-25.987879-104.494545z" fill="#F25458" p-id="5173"></path><path d="M581.352727 340.247273v15.515151c97.512727 0 162.909091 69.818182 162.909091 173.769697a187.42303 187.42303 0 0 1-67.10303 148.790303c-41.890909 35.064242-100.848485 54.30303-165.31394 54.303031s-123.42303-19.393939-165.313939-54.303031A187.42303 187.42303 0 0 1 279.272727 529.532121c0-102.555152 68.111515-171.442424 169.425455-171.442424a253.517576 253.517576 0 0 1 59.345454 7.757576l3.956364 0.930909 3.878788-1.086061a242.191515 242.191515 0 0 1 65.163636-9.541818v-15.515151m0 0a253.517576 253.517576 0 0 0-69.042424 9.774545 268.101818 268.101818 0 0 0-62.991515-7.757576C342.341818 342.574545 263.757576 414.332121 263.757576 529.532121c0 136.921212 111.010909 218.763636 248.242424 218.763637s248.242424-81.842424 248.242424-218.763637c0-113.415758-73.153939-189.284848-178.424242-189.284848z" fill="#352635" p-id="5174"></path><path d="M477.944242 391.214545c-30.409697 0-52.906667-8.766061-66.870303-26.68606-22.729697-29.246061-12.722424-70.283636-12.256969-71.990303a11.791515 11.791515 0 0 1 11.481212-8.921212h1.551515a11.946667 11.946667 0 0 1 10.395151 11.869091c-0.698182 65.163636 61.44 72.067879 64.077576 72.300606A11.946667 11.946667 0 0 1 497.105455 380.121212a11.481212 11.481212 0 0 1-11.326061 11.170909z m86.884849 14.351516a99.452121 99.452121 0 0 1-55.389091-20.092122 11.791515 11.791515 0 0 1-2.792727-15.515151 11.946667 11.946667 0 0 1 15.515151-4.57697 77.110303 77.110303 0 0 0 32.19394 7.757576c38.089697 0 59.655758-36.460606 59.888484-36.848485a11.946667 11.946667 0 0 1 21.41091 10.317576c-19.083636 48.795152-48.795152 59.035152-70.438788 59.035151z m0 0" fill="#38EBC4" p-id="5175"></path><path d="M504.630303 385.396364h-2.715151a11.869091 11.869091 0 0 1-2.637576-23.272728c44.528485-13.963636 33.82303-57.716364 32.504242-62.603636a11.869091 11.869091 0 0 1 22.574546-7.757576c11.403636 30.17697 11.326061 54.30303 0 70.826667-14.429091 20.867879-41.425455 22.49697-49.415758 22.49697z m0 0" fill="#38EBC4" p-id="5176"></path><path d="M456.998788 420.538182c-36.538182 0-49.958788-39.486061-50.501818-41.115152a11.869091 11.869091 0 0 1 20.169697-11.248485 44.761212 44.761212 0 0 0 35.684848 18.85091 65.551515 65.551515 0 0 0 34.521212-11.869091 11.791515 11.791515 0 0 1 16.368485 1.629091 11.946667 11.946667 0 0 1-1.08606 16.523636c-19.704242 18.075152-38.4 27.229091-55.544243 27.229091z m0 0" fill="#38EBC4" p-id="5177"></path><path d="M456.998788 428.606061c-42.278788 0-57.561212-44.761212-58.181818-46.545455a19.93697 19.93697 0 0 1 34.443636-18.850909 36.926061 36.926061 0 0 0 29.401212 15.90303 56.242424 56.242424 0 0 0 29.63394-10.317575A19.704242 19.704242 0 0 1 504.242424 364.606061a19.93697 19.93697 0 0 1 13.498182 34.676363C496.484848 418.909091 476.16 428.606061 456.998788 428.606061z m-38.787879-56.707879a3.723636 3.723636 0 0 0-3.10303 1.551515 3.801212 3.801212 0 0 0-0.543031 3.413333c0.465455 1.473939 12.101818 35.607273 42.821819 35.607273 15.049697 0 31.883636-8.455758 50.036363-25.134545a3.801212 3.801212 0 0 0-2.56-6.59394 3.490909 3.490909 0 0 0-2.327272 0.775758 72.455758 72.455758 0 0 1-39.486061 13.498182 53.21697 53.21697 0 0 1-41.968485-21.876364 3.413333 3.413333 0 0 0-2.870303-1.241212z m0 0" fill="#352635" p-id="5178"></path><path d="M541.711515 479.728485s29.090909-40.41697-2.01697-75.403637c-6.050909-6.826667-17.532121-0.775758-34.288484 9.15394 0 0 9.619394 2.172121 17.532121 17.92s18.850909 48.484848 18.850909 48.484848z m0 0" fill="#38EBC4" p-id="5179"></path><path d="M484.227879 399.437576h-6.283637c-33.202424 0-57.871515-10.007273-73.231515-29.789091-25.212121-32.349091-14.273939-77.032727-13.730909-78.972121a19.781818 19.781818 0 0 1 21.488485-14.81697 19.93697 19.93697 0 0 1 17.37697 20.092121c-0.54303 57.561212 54.30303 63.767273 56.940606 63.922424A20.092121 20.092121 0 0 1 505.018182 380.121212a19.626667 19.626667 0 0 1-18.850909 19.161212z m-7.214546-16.368485h8.300606A3.413333 3.413333 0 0 0 488.727273 380.121212a3.878788 3.878788 0 0 0-3.413334-3.878788c-2.947879 0-72.300606-7.757576-71.447272-80.368485a3.878788 3.878788 0 0 0-3.258182-3.878787h-0.620606a3.646061 3.646061 0 0 0-3.568485 2.715151c0 1.551515-9.619394 38.787879 10.78303 65.008485 12.25697 15.515152 32.193939 23.272727 59.655758 23.272727z m0 0" fill="#352635" p-id="5180"></path><path d="M564.829091 413.633939A108.993939 108.993939 0 0 1 504.242424 391.835152a20.014545 20.014545 0 0 1 20.790303-33.823031 68.344242 68.344242 0 0 0 28.780606 6.981818c33.047273 0 52.751515-32.504242 52.906667-32.814545a20.092121 20.092121 0 0 1 17.299394-9.929697 20.867879 20.867879 0 0 1 8.688485 1.939394 20.092121 20.092121 0 0 1 9.929697 25.367273c-20.712727 52.984242-53.837576 64.077576-77.575758 64.077575zM516.732121 372.363636a3.801212 3.801212 0 0 0-3.568485 2.56 3.723636 3.723636 0 0 0 1.241212 4.189091 92.315152 92.315152 0 0 0 50.424243 18.385455c27.384242 0 49.105455-18.618182 62.913939-54.30303a3.878788 3.878788 0 0 0-1.939394-4.809697 3.956364 3.956364 0 0 0-4.964848 1.551515c0 0.387879-24.203636 40.882424-66.870303 40.882424A85.721212 85.721212 0 0 1 518.361212 372.363636a3.568485 3.568485 0 0 0-1.629091 0z m0 0" fill="#352635" p-id="5181"></path><path d="M504.630303 393.464242h-3.258182a20.014545 20.014545 0 0 1-4.654545-38.787878c36.615758-11.481212 29.090909-45.924848 27.151515-52.751516a19.93697 19.93697 0 0 1 37.934545-12.412121c12.412121 32.814545 12.024242 59.267879-1.08606 78.118788-16.678788 24.281212-47.166061 26.14303-56.087273 26.14303z m38.787879-100.848484h-1.163637a3.801212 3.801212 0 0 0-2.56 4.654545c5.740606 20.712727 4.189091 59.267879-37.856969 72.455758a3.801212 3.801212 0 0 0-2.637576 4.111515 3.956364 3.956364 0 0 0 3.568485 3.335757h2.094545c6.981818 0 30.564848-1.396364 42.744243-19.083636 10.007273-14.429091 9.69697-35.762424-0.698182-63.301818a3.723636 3.723636 0 0 0-3.878788-2.327273z m0 0" fill="#352635" p-id="5182"></path><path d="M538.996364 497.338182l-4.964849-15.049697a481.900606 481.900606 0 0 0-18.307879-47.398788 25.832727 25.832727 0 0 0-12.256969-13.653333l-22.49697-3.413334 20.169697-11.403636c16.523636-9.774545 33.590303-19.781818 44.450909-7.757576 28.004848 31.573333 13.886061 69.818182 2.56 85.333334z m-18.307879-83.316364a55.156364 55.156364 0 0 1 9.464242 13.653334 330.395152 330.395152 0 0 1 12.8 31.030303 48.019394 48.019394 0 0 0-9.309091-49.338182 26.220606 26.220606 0 0 0-12.955151 4.421818z m0 0" fill="#352635" p-id="5183"></path><path d="M508.586667 405.721212c-16.911515 0-29.711515-9.541818-29.711515-22.186667s12.8-22.186667 29.711515-22.186666 29.633939 9.541818 29.633939 22.186666-12.8 22.186667-29.633939 22.186667z m0 0" fill="#38EBC4" p-id="5184"></path><path d="M508.586667 413.789091c-21.566061 0-37.779394-13.032727-37.779394-30.254546s16.213333-30.254545 37.779394-30.254545 37.701818 13.032727 37.701818 30.254545-16.213333 30.254545-37.701818 30.254546z m0-44.373333c-12.101818 0-21.566061 6.206061-21.566061 14.118787s9.464242 14.118788 21.566061 14.118788 21.488485-6.206061 21.488485-14.118788-9.386667-14.118788-21.488485-14.118787z m0 0" fill="#352635" p-id="5185"></path></svg>